<svg width="656" height="167" viewBox="0 0 656 167" fill="none" xmlns="http://www.w3.org/2000/svg">
<path d="M65.99 166.76C53.11 166.76 40.7667 165.073 28.96 161.7C17.1533 158.173 7.64667 153.65 0.44 148.13L13.09 120.07C19.99 124.977 28.1167 129.04 37.47 132.26C46.9767 135.327 56.56 136.86 66.22 136.86C73.58 136.86 79.4833 136.17 83.93 134.79C88.53 133.257 91.9033 131.187 94.05 128.58C96.1967 125.973 97.27 122.983 97.27 119.61C97.27 115.317 95.5833 111.943 92.21 109.49C88.8367 106.883 84.39 104.813 78.87 103.28C73.35 101.593 67.2167 100.06 60.47 98.68C53.8767 97.1467 47.2067 95.3067 40.46 93.16C33.8667 91.0133 27.81 88.2533 22.29 84.88C16.77 81.5067 12.2467 77.06 8.72 71.54C5.34667 66.02 3.66 58.9667 3.66 50.38C3.66 41.18 6.11333 32.8233 11.02 25.31C16.08 17.6433 23.5933 11.5867 33.56 7.13999C43.68 2.53999 56.33 0.239997 71.51 0.239997C81.63 0.239997 91.5967 1.46666 101.41 3.91999C111.223 6.21999 119.887 9.74666 127.4 14.5L115.9 42.79C108.387 38.4967 100.873 35.3533 93.36 33.36C85.8467 31.2133 78.4867 30.14 71.28 30.14C64.0733 30.14 58.17 30.9833 53.57 32.67C48.97 34.3567 45.6733 36.58 43.68 39.34C41.6867 41.9467 40.69 45.0133 40.69 48.54C40.69 52.68 42.3767 56.0533 45.75 58.66C49.1233 61.1133 53.57 63.1067 59.09 64.64C64.61 66.1733 70.6667 67.7067 77.26 69.24C84.0067 70.7733 90.6767 72.5367 97.27 74.53C104.017 76.5233 110.15 79.2067 115.67 82.58C121.19 85.9533 125.637 90.4 129.01 95.92C132.537 101.44 134.3 108.417 134.3 116.85C134.3 125.897 131.77 134.177 126.71 141.69C121.65 149.203 114.06 155.26 103.94 159.86C93.9733 164.46 81.3233 166.76 65.99 166.76ZM237.96 166.76C225.233 166.76 213.427 164.69 202.54 160.55C191.807 156.41 182.453 150.583 174.48 143.07C166.66 135.557 160.527 126.74 156.08 116.62C151.787 106.5 149.64 95.46 149.64 83.5C149.64 71.54 151.787 60.5 156.08 50.38C160.527 40.26 166.737 31.4433 174.71 23.93C182.683 16.4167 192.037 10.59 202.77 6.44999C213.503 2.30999 225.157 0.239997 237.73 0.239997C250.457 0.239997 262.11 2.30999 272.69 6.44999C283.423 10.59 292.7 16.4167 300.52 23.93C308.493 31.4433 314.703 40.26 319.15 50.38C323.597 60.3467 325.82 71.3867 325.82 83.5C325.82 95.46 323.597 106.577 319.15 116.85C314.703 126.97 308.493 135.787 300.52 143.3C292.7 150.66 283.423 156.41 272.69 160.55C262.11 164.69 250.533 166.76 237.96 166.76ZM237.73 135.02C244.937 135.02 251.53 133.793 257.51 131.34C263.643 128.887 269.01 125.36 273.61 120.76C278.21 116.16 281.737 110.717 284.19 104.43C286.797 98.1433 288.1 91.1667 288.1 83.5C288.1 75.8333 286.797 68.8567 284.19 62.57C281.737 56.2833 278.21 50.84 273.61 46.24C269.163 41.64 263.873 38.1133 257.74 35.66C251.607 33.2067 244.937 31.98 237.73 31.98C230.523 31.98 223.853 33.2067 217.72 35.66C211.74 38.1133 206.45 41.64 201.85 46.24C197.25 50.84 193.647 56.2833 191.04 62.57C188.587 68.8567 187.36 75.8333 187.36 83.5C187.36 91.0133 188.587 97.99 191.04 104.43C193.647 110.717 197.173 116.16 201.62 120.76C206.22 125.36 211.587 128.887 217.72 131.34C223.853 133.793 230.523 135.02 237.73 135.02ZM353.822 164V2.99999H391.082V133.64H471.812V164H353.822ZM568.136 166.76C555.409 166.76 543.602 164.69 532.716 160.55C521.982 156.41 512.629 150.583 504.656 143.07C496.836 135.557 490.702 126.74 486.256 116.62C481.962 106.5 479.816 95.46 479.816 83.5C479.816 71.54 481.962 60.5 486.256 50.38C490.702 40.26 496.912 31.4433 504.886 23.93C512.859 16.4167 522.212 10.59 532.946 6.44999C543.679 2.30999 555.332 0.239997 567.906 0.239997C580.632 0.239997 592.286 2.30999 602.866 6.44999C613.599 10.59 622.876 16.4167 630.696 23.93C638.669 31.4433 644.879 40.26 649.326 50.38C653.772 60.3467 655.996 71.3867 655.996 83.5C655.996 95.46 653.772 106.577 649.326 116.85C644.879 126.97 638.669 135.787 630.696 143.3C622.876 150.66 613.599 156.41 602.866 160.55C592.286 164.69 580.709 166.76 568.136 166.76ZM567.906 135.02C575.112 135.02 581.706 133.793 587.686 131.34C593.819 128.887 599.186 125.36 603.786 120.76C608.386 116.16 611.912 110.717 614.366 104.43C616.972 98.1433 618.276 91.1667 618.276 83.5C618.276 75.8333 616.972 68.8567 614.366 62.57C611.912 56.2833 608.386 50.84 603.786 46.24C599.339 41.64 594.049 38.1133 587.916 35.66C581.782 33.2067 575.112 31.98 567.906 31.98C560.699 31.98 554.029 33.2067 547.896 35.66C541.916 38.1133 536.626 41.64 532.026 46.24C527.426 50.84 523.822 56.2833 521.216 62.57C518.762 68.8567 517.536 75.8333 517.536 83.5C517.536 91.0133 518.762 97.99 521.216 104.43C523.822 110.717 527.349 116.16 531.796 120.76C536.396 125.36 541.762 128.887 547.896 131.34C554.029 133.793 560.699 135.02 567.906 135.02Z" fill="#0B0B0B"/>
</svg>
